<?xml version="1.0" encoding="utf-8"?><svg version="1.1" id="Layer_1" xmlns="http://www.w3.org/2000/svg" xmlns:xlink="http://www.w3.org/1999/xlink" x="0px" y="0px" viewBox="0 0 122.88 65.27" style="enable-background:new 0 0 122.88 65.27" xml:space="preserve"><style type="text/css">.st0{fill-rule:evenodd;clip-rule:evenodd;}</style><g><path class="st0" d="M65.43,5.59c2.25-2.17,5.22-3.82,8.46-4.74c3.45-0.98,7.27-1.16,10.92-0.29c3.72,0.9,7.24,2.89,9.99,6.24 c2.7,3.29,4.63,7.87,5.2,13.96c10.85,4.17,17.39,11.18,20.56,18.83c1.46,3.53,2.2,7.21,2.3,10.79c0.1,3.59-0.43,7.11-1.51,10.32 c-0.15,0.44-0.3,0.86-0.47,1.29h-0.28c0,1.8-1.46,3.26-3.26,3.26H3.26c-1.8,0-3.26-1.46-3.26-3.26c0-0.11,0.01-0.21,0.02-0.32 C-0.02,60.53,0,59.36,0.09,58.2c0.38-5.32,2.02-10.53,4.65-14.85c2.89-4.75,6.99-8.45,11.98-10.16c-0.07-8.89,2.8-16.12,7.34-21.51 c2.81-3.34,6.26-5.96,10.05-7.81c3.78-1.85,7.89-2.94,12.03-3.24C52.84,0.17,59.68,1.76,65.43,5.59L65.43,5.59z M64.68,33.29 c3.18,0,5.77,2.58,5.77,5.77c0,3.18-2.58,5.77-5.77,5.77c-3.18,0-5.77-2.58-5.77-5.77C58.91,35.87,61.49,33.29,64.68,33.29 L64.68,33.29z M54.26,19.19c1,0,1.82,0.81,1.82,1.82c0,1-0.81,1.82-1.82,1.82s-1.82-0.81-1.82-1.82 C52.44,20,53.26,19.19,54.26,19.19L54.26,19.19z M94.27,40.81c3.18,0,5.77,2.58,5.77,5.77c0,3.18-2.58,5.77-5.77,5.77 c-3.18,0-5.77-2.58-5.77-5.77C88.5,43.39,91.08,40.81,94.27,40.81L94.27,40.81z M79.01,16.32c1.63-0.81,3.6-0.15,4.42,1.47 c0.81,1.63,0.15,6.79-1.47,7.61c-1.63,0.81-3.6-3.03-4.42-4.66C76.73,19.11,77.39,17.13,79.01,16.32L79.01,16.32L79.01,16.32z M27.48,53.13c1,0,1.82,0.81,1.82,1.82c0,1-0.81,1.82-1.82,1.82c-1,0-1.82-0.81-1.82-1.82C25.67,53.94,26.48,53.13,27.48,53.13 L27.48,53.13z M29.52,28.87c1.47-0.74,3.26-0.14,4,1.33c0.74,1.47,0.14,3.26-1.33,4c-1.47,0.74-3.26,0.14-4-1.33 C27.45,31.39,28.05,29.6,29.52,28.87L29.52,28.87L29.52,28.87z M45.56,48.3c1.65,0,2.98,1.33,2.98,2.98c0,1.65-1.33,2.98-2.98,2.98 c-1.65,0-2.98-1.33-2.98-2.98C42.58,49.63,43.91,48.3,45.56,48.3L45.56,48.3z"/></g></svg>