<?xml version="1.0" encoding="iso-8859-1"?>
<!-- Uploaded to: SVG Repo, www.svgrepo.com, Generator: SVG Repo Mixer Tools -->
<!DOCTYPE svg PUBLIC "-//W3C//DTD SVG 1.1//EN" "http://www.w3.org/Graphics/SVG/1.1/DTD/svg11.dtd">
<svg fill="#000000" version="1.1" id="Capa_1" xmlns="http://www.w3.org/2000/svg" xmlns:xlink="http://www.w3.org/1999/xlink" 
	 width="800px" height="800px" viewBox="0 0 67.483 67.483"
	 xml:space="preserve">
<g>
	<g>
		<path d="M50.514,40.612c-1.912-0.178-3.907-0.321-5.975-0.438l3.352,5.142c0.709-1.058,1.585-1.783,2.479-2.022L50.514,40.612z"/>
		<path d="M54.045,40.981l-1.472,2.899c0.647,0.655,1.05,1.723,1.132,2.99l5.301-2.691c-0.036-0.866-0.06-1.725-0.041-2.555
			C57.404,41.388,55.744,41.178,54.045,40.981z"/>
		<path d="M53.427,49.707c-0.089,0.335-0.206,0.65-0.324,0.96l4.361,2.84c0.812-1.521,1.3-3.316,1.496-5.241l-5.303,0.287
			C53.604,48.929,53.531,49.316,53.427,49.707z"/>
		<path d="M41.802,52.953c0.835,1.889,2.245,3.353,3.974,4.233l1.771-3.481c-0.661-0.682-1.054-1.788-1.118-3.1L41.802,52.953z"/>
		<path d="M46.718,47.907c0.104-0.388,0.232-0.762,0.376-1.115l-4.963-3.232c-0.085,0.239-0.144,0.451-0.242,0.702
			c-0.675,1.75-0.936,3.406-0.898,4.932l5.524-0.296C46.565,48.573,46.629,48.242,46.718,47.907z"/>
		<path d="M49.809,54.316l-0.205,3.819c0.014,0,0.032,0,0.048,0c2.227,0.004,4.026-0.635,5.427-1.723l-2.751-4.227
			C51.615,53.29,50.724,54.053,49.809,54.316z"/>
		<path d="M46.492,5.552L44.745,1.21c-1.919,1.451-3.55,3.894-4.672,6.928l3.974,2.478C44.391,8.405,45.246,6.602,46.492,5.552z"/>
		<path d="M54.471,8.776l2.897-3.695C55.434,2.371,53.05,0.604,50.607,0l-0.165,4.859C51.969,5.416,53.395,6.816,54.471,8.776z"/>
		<path d="M56.132,13.504c0.104,0.6,0.159,1.188,0.2,1.771L61.451,16c-0.342-2.45-0.949-4.685-1.771-6.667l-4.037,2.157
			C55.845,12.133,56.009,12.805,56.132,13.504z"/>
		<path d="M44.108,15.622c-0.126-0.696-0.198-1.385-0.235-2.055l-5.034-0.715c-0.403,2.425-0.509,5.017-0.234,7.662l5.917-3.158
			C44.361,16.794,44.211,16.223,44.108,15.622z"/>
		<path d="M49.733,24.249c-1.556-0.594-3.004-2.068-4.083-4.112l-5.5,7.017c0.14,0.376,0.253,0.757,0.411,1.128
			c3.02,0.106,6.035,0.292,9.017,0.539L49.733,24.249z"/>
		<path d="M56.223,18.274c-0.314,2.287-1.168,4.168-2.432,5.258l2.396,5.951c1.487,0.18,2.966,0.374,4.416,0.591
			c0.249-1.284,0.497-2.592,0.714-3.959c0.244-1.522,0.354-2.987,0.406-4.419L56.223,18.274z"/>
		<path d="M14.911,53.225l-1.471-2.899c-1.703,0.196-3.359,0.406-4.924,0.646c0.023,0.828-0.002,1.686-0.04,2.553l5.302,2.691
			C13.861,54.946,14.259,53.879,14.911,53.225z"/>
		<path d="M16.97,49.955l0.145,2.679c0.893,0.241,1.769,0.965,2.479,2.021l3.347-5.137C20.877,49.634,18.884,49.777,16.97,49.955z"
			/>
		<path d="M25.352,52.902l-4.959,3.232c0.143,0.354,0.268,0.728,0.373,1.115c0.091,0.338,0.149,0.666,0.204,0.995l5.521,0.296
			c0.04-1.528-0.225-3.184-0.899-4.934C25.5,53.359,25.438,53.143,25.352,52.902z"/>
		<path d="M14.061,59.048c-0.106-0.39-0.183-0.775-0.234-1.154l-5.305-0.285c0.196,1.923,0.687,3.716,1.498,5.239l4.36-2.842
			C14.262,59.7,14.146,59.386,14.061,59.048z"/>
		<path d="M19.941,63.051l1.769,3.483c1.726-0.885,3.136-2.35,3.97-4.233l-4.623-2.35C20.991,61.261,20.601,62.369,19.941,63.051z"
			/>
		<path d="M15.158,61.529l-2.753,4.229c1.405,1.088,3.202,1.729,5.428,1.725c0.016,0,0.033-0.005,0.047-0.005l-0.205-3.818
			C16.761,63.396,15.869,62.634,15.158,61.529z"/>
		<path d="M27.412,17.481c-1.124-3.034-2.754-5.477-4.674-6.927l-1.748,4.342c1.243,1.047,2.102,2.85,2.448,5.063L27.412,17.481z"/>
		<path d="M23.609,22.908c-0.033,0.673-0.109,1.362-0.234,2.058c-0.105,0.601-0.25,1.172-0.416,1.733l5.917,3.158
			c0.276-2.645,0.167-5.24-0.234-7.665L23.609,22.908z"/>
		<path d="M17.041,14.2l-0.164-4.859c-2.445,0.604-4.826,2.372-6.762,5.083l2.895,3.698C14.088,16.159,15.513,14.759,17.041,14.2z"
			/>
		<path d="M13.691,32.877c-1.262-1.089-2.117-2.971-2.432-5.258l-5.499,3.422c0.049,1.433,0.163,2.899,0.406,4.421
			c0.215,1.368,0.463,2.676,0.715,3.96c1.451-0.217,2.927-0.411,4.415-0.591L13.691,32.877z"/>
		<path d="M11.355,22.847c0.125-0.699,0.288-1.369,0.486-2.011L7.803,18.68c-0.82,1.981-1.427,4.217-1.77,6.664l5.12-0.727
			C11.192,24.036,11.249,23.447,11.355,22.847z"/>
		<path d="M17.75,33.592l0.153,4.57c2.982-0.246,5.996-0.431,9.016-0.538c0.156-0.369,0.272-0.75,0.411-1.124l-5.499-7.017
			C20.755,31.524,19.306,32.998,17.75,33.592z"/>
	</g>
</g>
</svg>