<?xml version="1.0" encoding="iso-8859-1"?>
<!-- Uploaded to: SVG Repo, www.svgrepo.com, Generator: SVG Repo Mixer Tools -->
<svg height="800px" width="800px" version="1.1" id="Layer_1" xmlns="http://www.w3.org/2000/svg" xmlns:xlink="http://www.w3.org/1999/xlink" 
	 viewBox="0 0 512 512" xml:space="preserve">
<path style="fill:#EAFFFF;" d="M445.217,500.87H66.783c-24.588,0-44.522-19.933-44.522-44.522V77.913
	c0-24.588,19.933-44.522,44.522-44.522h378.435c24.588,0,44.522,19.933,44.522,44.522v378.435
	C489.739,480.936,469.806,500.87,445.217,500.87z"/>
<path style="fill:#91C1A4;" d="M155.826,244.87H22.261C9.966,244.87,0,234.903,0,222.609l0,0c0-12.295,9.966-22.261,22.261-22.261
	h133.565c12.295,0,22.261,9.966,22.261,22.261l0,0C178.087,234.903,168.121,244.87,155.826,244.87z"/>
<path style="fill:#A9D5BB;" d="M512,22.261L512,22.261c0,12.295-9.966,22.261-22.261,22.261h-80.915
	c1.898,3.277,3.002,7.071,3.002,11.13l0,0c0,12.295-9.966,22.261-22.261,22.261H200.348c-12.295,0-22.261-9.966-22.261-22.261l0,0
	c0-12.295,9.966-22.261,22.261-22.261h125.437c-1.898-3.277-3.002-7.071-3.002-11.13l0,0C322.783,9.966,332.749,0,345.043,0h144.696
	C502.034,0,512,9.966,512,22.261z"/>
<path style="fill:#C5EAD4;" d="M512,244.87L512,244.87c0,12.295-9.966,22.261-22.261,22.261H356.174
	c-12.295,0-22.261-9.966-22.261-22.261l0,0c0-12.295,9.966-22.261,22.261-22.261h133.565C502.034,222.609,512,232.575,512,244.87z
	 M411.826,55.652L411.826,55.652c0-12.295-9.966-22.261-22.261-22.261H200.348c-12.295,0-22.261,9.966-22.261,22.261l0,0
	c0,12.295,9.966,22.261,22.261,22.261h189.217C401.86,77.913,411.826,67.947,411.826,55.652z"/>
<path style="fill:#BCAE8A;" d="M500.87,456.348v33.391H11.13v-33.391l166.738-281.371c7.428-12.536,11.349-26.84,11.349-41.412
	c0-6.147,4.983-11.13,11.13-11.13h111.304c6.147,0,11.13,4.983,11.13,11.13c0,14.572,3.92,28.876,11.349,41.412L500.87,456.348z"/>
<path style="fill:#DD7400;" d="M256,178.087v44.522c0,12.295-9.966,22.261-22.261,22.261s-22.261-9.966-22.261-22.261v-44.522
	h-35.453l1.843-3.11c7.428-12.536,11.349-26.84,11.349-41.412c0-6.147,4.983-11.13,11.13-11.13h111.304
	c6.147,0,11.13,4.983,11.13,11.13c0,14.572,3.92,28.876,11.349,41.412l1.843,3.11H256z"/>
<path style="fill:#998C6E;" d="M367.85,363.355c-1.336,0.791-2.802,1.168-4.247,1.168c-2.853,0-5.631-1.461-7.189-4.093
	l-39.575-66.783c-2.351-3.966-1.041-9.087,2.925-11.438c3.969-2.351,9.088-1.04,11.438,2.925l39.575,66.783
	C373.126,355.884,371.816,361.004,367.85,363.355z M192.236,282.21c-3.967-2.351-9.087-1.04-11.438,2.925l-39.575,66.783
	c-2.351,3.966-1.041,9.087,2.925,11.438c1.336,0.791,2.802,1.168,4.247,1.168c2.853,0,5.631-1.461,7.189-4.093l39.575-66.783
	C197.513,289.682,196.202,284.561,192.236,282.21z M256,292.174c-4.61,0-8.348,3.738-8.348,8.348v85.704
	c0,4.61,3.738,8.348,8.348,8.348s8.348-3.738,8.348-8.348v-85.704C264.348,295.911,260.61,292.174,256,292.174z"/>
<path style="fill:#9FBA41;" d="M500.87,428.522v61.217c0,12.295-9.966,22.261-22.261,22.261h-44.522h-55.652h-61.217h-5.565H200.348
	h-5.565h-61.217H77.913H33.391c-12.295,0-22.261-9.966-22.261-22.261v-61.217c0-33.81,27.408-61.217,61.217-61.217l0,0
	c24.237,0,45.181,14.087,55.099,34.518c3.783-0.731,7.687-1.126,11.684-1.126l0,0c32.781,0,59.542,25.767,61.139,58.152
	c9.636-21.167,30.956-35.891,55.73-35.891l0,0c24.774,0,46.094,14.724,55.73,35.891c1.597-32.385,28.358-58.152,61.139-58.152l0,0
	c3.997,0,7.9,0.395,11.684,1.126c9.918-20.431,30.862-34.518,55.099-34.518l0,0C473.462,367.304,500.87,394.712,500.87,428.522z"/>
<path style="fill:#7F932A;" d="M177.824,512h-4.678H119.14H70.045H30.769c-10.847,0-19.639-9.966-19.639-22.261v-5.565
	c0-33.81,24.179-61.217,54.005-61.217l0,0c21.382,0,39.858,14.087,48.608,34.518c3.338-0.731,6.781-1.126,10.307-1.126l0,0
	C152.221,456.348,175.343,480.8,177.824,512z M446.865,422.957L446.865,422.957c-21.382,0-39.858,14.087-48.608,34.518
	c-3.338-0.731-6.781-1.126-10.307-1.126l0,0c-28.17,0-51.292,24.452-53.774,55.652h4.678h54.006h49.095h39.277
	c10.845,0,19.639-9.966,19.639-22.261v-5.565C500.87,450.364,476.691,422.957,446.865,422.957z"/>
<path style="fill:#606D11;" d="M512,503.652c0,4.61-3.738,8.348-8.348,8.348H8.348C3.738,512,0,508.262,0,503.652
	s3.738-8.348,8.348-8.348h495.304C508.262,495.304,512,499.042,512,503.652z"/>
</svg>